<svg width="18" height="17" viewBox="0 0 18 17" fill="none" xmlns="http://www.w3.org/2000/svg">
<path fill-rule="evenodd" clip-rule="evenodd" d="M7.78072 0.303736C8.46272 0.241728 9.13769 0.462339 9.65016 0.909284L9.7748 1.0257L16.2939 7.54481C17.2312 8.48201 17.2687 9.97832 16.4064 10.9603L16.2939 11.0803L11.5798 15.7944C10.6426 16.7316 9.1463 16.7691 8.1643 15.9069L8.0443 15.7944L1.52521 9.27531C1.04094 8.791 0.778311 8.13124 0.793601 7.45143L0.803246 7.28114L1.19609 2.95997C1.30079 1.80816 2.17971 0.885624 3.31059 0.714583L3.45948 0.696578L7.78072 0.303736ZM5.68645 5.18778C5.03558 5.83865 5.03558 6.89389 5.68645 7.54481C6.33733 8.19564 7.39264 8.19564 8.04347 7.54481C8.69439 6.89389 8.69439 5.83865 8.04347 5.18778C7.39264 4.5369 6.33733 4.5369 5.68645 5.18778Z" fill="white"/>
</svg>
