<svg width="117" height="24" viewBox="0 0 117 24" fill="none" xmlns="http://www.w3.org/2000/svg">
<rect width="24" height="24" fill="white" fill-opacity="0.01"/>
<path d="M1.94935 3.91175C1.97329 3.48082 2.43073 3.21536 2.81675 3.40838L7.65268 5.82634C7.86403 5.93201 7.99367 6.15189 7.98383 6.38798L7.51526 17.6338C7.50589 17.8586 7.37152 18.0593 7.16721 18.1536L1.90585 20.5819C1.49508 20.7715 1.03025 20.4556 1.05534 20.0039L1.94935 3.91175Z" fill="#007AFF"/>
<path d="M22.0507 3.91175C22.0267 3.48082 21.5693 3.21536 21.1832 3.40838L16.3473 5.82634C16.136 5.93201 16.0063 6.15189 16.0162 6.38798L16.4847 17.6338C16.4941 17.8586 16.6285 18.0593 16.8328 18.1536L22.0941 20.5819C22.5049 20.7715 22.9698 20.4556 22.9447 20.0039L22.0507 3.91175Z" fill="#FDAD15"/>
<path d="M8.96907 6.77336C8.98357 6.41065 9.36759 6.1838 9.69227 6.34614L11.5528 7.27639C11.8343 7.41716 12.1657 7.41716 12.4472 7.27639L14.3077 6.34614C14.6324 6.1838 15.0164 6.41065 15.0309 6.77337L15.4784 17.9603C15.4919 18.2971 15.3348 18.618 15.0604 18.814L12.3487 20.7509C12.1401 20.8999 11.8599 20.8999 11.6513 20.7509L8.93955 18.814C8.66525 18.618 8.50812 18.2971 8.52159 17.9603L8.96907 6.77336Z" fill="#2AC670"/>
<path opacity="0.9" d="M35.332 5.616H39.31V14.832H45.664V18H35.332V5.616ZM51.9999 8.28C53.6679 8.28 54.9759 8.706 55.9239 9.558C56.8839 10.398 57.3639 11.628 57.3639 13.248C57.3639 14.868 56.8839 16.104 55.9239 16.956C54.9759 17.796 53.6679 18.216 51.9999 18.216C50.3319 18.216 49.0239 17.796 48.0759 16.956C47.1279 16.116 46.6539 14.88 46.6539 13.248C46.6539 11.616 47.1279 10.38 48.0759 9.54C49.0239 8.7 50.3319 8.28 51.9999 8.28ZM51.9999 10.71C50.8239 10.71 50.2359 11.388 50.2359 12.744V13.77C50.2359 15.114 50.8239 15.786 51.9999 15.786C53.1879 15.786 53.7819 15.114 53.7819 13.77V12.744C53.7819 11.388 53.1879 10.71 51.9999 10.71ZM69.7837 6.714C69.7837 7.446 69.5977 8.01 69.2257 8.406C68.8657 8.802 68.3197 9.096 67.5877 9.288C67.9357 9.552 68.2057 9.864 68.3977 10.224C68.6017 10.572 68.7037 10.944 68.7037 11.34C68.7037 12.348 68.3197 13.11 67.5517 13.626C66.7957 14.142 65.8477 14.4 64.7077 14.4H63.3397C62.5837 14.4 62.2057 14.574 62.2057 14.922C62.2057 15.09 62.2897 15.228 62.4577 15.336C62.6257 15.432 62.9197 15.48 63.3397 15.48H66.5797C67.6357 15.48 68.4337 15.756 68.9737 16.308C69.5137 16.86 69.7837 17.598 69.7837 18.522C69.7837 19.206 69.6037 19.794 69.2437 20.286C68.8837 20.778 68.3977 21.15 67.7857 21.402C67.1737 21.654 66.5077 21.78 65.7877 21.78H60.4957C60.0637 21.78 59.6617 21.678 59.2897 21.474C58.9297 21.27 58.6417 20.988 58.4257 20.628C58.2097 20.28 58.1017 19.89 58.1017 19.458C58.1017 18.99 58.2457 18.564 58.5337 18.18C58.8217 17.808 59.1817 17.526 59.6137 17.334C59.3257 17.13 59.0977 16.884 58.9297 16.596C58.7617 16.308 58.6777 15.996 58.6777 15.66C58.6777 15.192 58.8517 14.772 59.1997 14.4C59.5477 14.016 59.9797 13.758 60.4957 13.626C60.0277 13.326 59.6557 12.984 59.3797 12.6C59.1037 12.204 58.9657 11.79 58.9657 11.358C58.9657 10.254 59.4097 9.468 60.2977 9C61.1977 8.52 62.3857 8.28 63.8617 8.28C64.5097 8.28 65.0317 8.316 65.4277 8.388C66.0157 8.016 66.3937 7.68 66.5617 7.38C66.7417 7.068 66.8317 6.846 66.8317 6.714H69.7837ZM63.8257 10.152C63.4297 10.152 63.1057 10.254 62.8537 10.458C62.6017 10.662 62.4757 10.956 62.4757 11.34C62.4757 11.736 62.5897 12.036 62.8177 12.24C63.0577 12.432 63.3937 12.528 63.8257 12.528C64.2577 12.528 64.5937 12.432 64.8337 12.24C65.0857 12.036 65.2117 11.736 65.2117 11.34C65.2117 10.944 65.0857 10.65 64.8337 10.458C64.5937 10.254 64.2577 10.152 63.8257 10.152ZM62.4397 18C62.1637 18 61.9357 18.072 61.7557 18.216C61.5877 18.372 61.5037 18.588 61.5037 18.864C61.5037 19.14 61.5937 19.362 61.7737 19.53C61.9537 19.698 62.1757 19.782 62.4397 19.782H65.2477C65.5117 19.782 65.7337 19.698 65.9137 19.53C66.1057 19.374 66.2017 19.158 66.2017 18.882C66.2017 18.606 66.1117 18.39 65.9317 18.234C65.7517 18.078 65.5237 18 65.2477 18H62.4397ZM76.0116 8.28C77.6796 8.28 78.9876 8.706 79.9356 9.558C80.8956 10.398 81.3756 11.628 81.3756 13.248C81.3756 14.868 80.8956 16.104 79.9356 16.956C78.9876 17.796 77.6796 18.216 76.0116 18.216C74.3436 18.216 73.0356 17.796 72.0876 16.956C71.1396 16.116 70.6656 14.88 70.6656 13.248C70.6656 11.616 71.1396 10.38 72.0876 9.54C73.0356 8.7 74.3436 8.28 76.0116 8.28ZM76.0116 10.71C74.8356 10.71 74.2476 11.388 74.2476 12.744V13.77C74.2476 15.114 74.8356 15.786 76.0116 15.786C77.1996 15.786 77.7936 15.114 77.7936 13.77V12.744C77.7936 11.388 77.1996 10.71 76.0116 10.71Z" fill="white"/>
</svg>
    