<svg width="15" height="16" viewBox="0 0 15 16" fill="none" xmlns="http://www.w3.org/2000/svg">
<path opacity="0.5" d="M7.00016 0.5C7.46041 0.5 7.8335 0.8731 7.8335 1.33333C7.8335 1.76069 7.51181 2.11292 7.09735 2.16106L7.00016 2.16667H2.8335C2.40614 2.16667 2.05391 2.48837 2.00577 2.90282L2.00016 3V13C2.00016 13.4274 2.32187 13.7796 2.73631 13.8277L2.8335 13.8333H6.5835C7.04375 13.8333 7.41683 14.2064 7.41683 14.6667C7.41683 15.094 7.09514 15.4463 6.68068 15.4944L6.5835 15.5H2.8335C1.5021 15.5 0.413779 14.4593 0.33774 13.1469L0.333496 13V3C0.333496 1.6686 1.37427 0.580283 2.6866 0.504244L2.8335 0.5H7.00016ZM11.756 5.05372L14.1131 7.41075C14.4385 7.73617 14.4385 8.26383 14.1131 8.58925L11.756 10.9462C11.4306 11.2717 10.903 11.2717 10.5775 10.9462C10.2521 10.6208 10.2521 10.0932 10.5775 9.76775L11.512 8.83333H7.00016C6.53991 8.83333 6.16683 8.46025 6.16683 8C6.16683 7.53975 6.53991 7.16667 7.00016 7.16667H11.512L10.5775 6.23223C10.2521 5.9068 10.2521 5.37916 10.5775 5.05372C10.903 4.72828 11.4306 4.72828 11.756 5.05372Z" fill="white"/>
</svg>
